<svg width="167" height="207" viewBox="0 0 167 207" fill="none" xmlns="http://www.w3.org/2000/svg">
<path d="M67.9327 123.268L67.3447 121.504H63.4387L62.8507 123.268H60.7647L64.1947 113.468H66.5887L70.0327 123.268H67.9327ZM64.0547 119.698H66.7427L65.3987 115.694L64.0547 119.698ZM76.0149 113.468H77.8209V123.268H76.0149V122.442C75.4829 123.123 74.7269 123.464 73.7469 123.464C72.8042 123.464 71.9969 123.109 71.3249 122.4C70.6622 121.681 70.3309 120.804 70.3309 119.768C70.3309 118.732 70.6622 117.859 71.3249 117.15C71.9969 116.431 72.8042 116.072 73.7469 116.072C74.7269 116.072 75.4829 116.412 76.0149 117.094V113.468ZM72.6829 121.196C73.0562 121.56 73.5229 121.742 74.0829 121.742C74.6429 121.742 75.1049 121.56 75.4689 121.196C75.8329 120.822 76.0149 120.346 76.0149 119.768C76.0149 119.189 75.8329 118.718 75.4689 118.354C75.1049 117.98 74.6429 117.794 74.0829 117.794C73.5229 117.794 73.0562 117.98 72.6829 118.354C72.3189 118.718 72.1369 119.189 72.1369 119.768C72.1369 120.346 72.3189 120.822 72.6829 121.196ZM85.4366 122.4C84.7179 123.109 83.8406 123.464 82.8046 123.464C81.7686 123.464 80.8912 123.109 80.1726 122.4C79.4632 121.681 79.1086 120.804 79.1086 119.768C79.1086 118.732 79.4632 117.859 80.1726 117.15C80.8912 116.431 81.7686 116.072 82.8046 116.072C83.8406 116.072 84.7179 116.431 85.4366 117.15C86.1552 117.859 86.5146 118.732 86.5146 119.768C86.5146 120.804 86.1552 121.681 85.4366 122.4ZM81.4466 121.154C81.8106 121.518 82.2632 121.7 82.8046 121.7C83.3459 121.7 83.7986 121.518 84.1626 121.154C84.5266 120.79 84.7086 120.328 84.7086 119.768C84.7086 119.208 84.5266 118.746 84.1626 118.382C83.7986 118.018 83.3459 117.836 82.8046 117.836C82.2632 117.836 81.8106 118.018 81.4466 118.382C81.0919 118.746 80.9146 119.208 80.9146 119.768C80.9146 120.328 81.0919 120.79 81.4466 121.154ZM91.8591 116.072C92.8017 116.072 93.6044 116.431 94.2671 117.15C94.9391 117.859 95.2751 118.732 95.2751 119.768C95.2751 120.804 94.9391 121.681 94.2671 122.4C93.6044 123.109 92.8017 123.464 91.8591 123.464C90.8791 123.464 90.1231 123.123 89.5911 122.442V123.268H87.7851V113.468H89.5911V117.094C90.1231 116.412 90.8791 116.072 91.8591 116.072ZM90.1371 121.196C90.5011 121.56 90.9631 121.742 91.5231 121.742C92.0831 121.742 92.5451 121.56 92.9091 121.196C93.2824 120.822 93.4691 120.346 93.4691 119.768C93.4691 119.189 93.2824 118.718 92.9091 118.354C92.5451 117.98 92.0831 117.794 91.5231 117.794C90.9631 117.794 90.5011 117.98 90.1371 118.354C89.7731 118.718 89.5911 119.189 89.5911 119.768C89.5911 120.346 89.7731 120.822 90.1371 121.196ZM98.0747 120.51C98.3174 121.387 98.9754 121.826 100.049 121.826C100.739 121.826 101.262 121.592 101.617 121.126L103.073 121.966C102.382 122.964 101.365 123.464 100.021 123.464C98.8634 123.464 97.9347 123.114 97.2347 122.414C96.5347 121.714 96.1847 120.832 96.1847 119.768C96.1847 118.713 96.5301 117.836 97.2207 117.136C97.9114 116.426 98.7981 116.072 99.8807 116.072C100.907 116.072 101.752 116.426 102.415 117.136C103.087 117.845 103.423 118.722 103.423 119.768C103.423 120.001 103.399 120.248 103.353 120.51H98.0747ZM98.0467 119.11H101.617C101.514 118.634 101.299 118.279 100.973 118.046C100.655 117.812 100.291 117.696 99.8807 117.696C99.3954 117.696 98.9941 117.822 98.6767 118.074C98.3594 118.316 98.1494 118.662 98.0467 119.11ZM52.0255 140.268L51.4375 138.504H47.5315L46.9435 140.268H44.8575L48.2875 130.468H50.6815L54.1255 140.268H52.0255ZM48.1475 136.698H50.8355L49.4915 132.694L48.1475 136.698ZM58.554 132.008C57.5647 131.933 57.07 132.33 57.07 133.198V133.268H58.554V135.004H57.07V140.268H55.264V135.004H54.256V133.268H55.264V133.198C55.264 132.208 55.5393 131.457 56.09 130.944C56.6407 130.43 57.462 130.206 58.554 130.272V132.008ZM63.6045 135.004H62.0225V137.916C62.0225 138.158 62.0832 138.336 62.2045 138.448C62.3258 138.56 62.5032 138.625 62.7365 138.644C62.9698 138.653 63.2592 138.648 63.6045 138.63V140.268C62.3632 140.408 61.4858 140.291 60.9725 139.918C60.4685 139.544 60.2165 138.877 60.2165 137.916V135.004H58.9985V133.268H60.2165V131.854L62.0225 131.308V133.268H63.6045V135.004ZM66.1851 137.51C66.4278 138.387 67.0858 138.826 68.1591 138.826C68.8498 138.826 69.3724 138.592 69.7271 138.126L71.1831 138.966C70.4924 139.964 69.4751 140.464 68.1311 140.464C66.9738 140.464 66.0451 140.114 65.3451 139.414C64.6451 138.714 64.2951 137.832 64.2951 136.768C64.2951 135.713 64.6404 134.836 65.3311 134.136C66.0218 133.426 66.9084 133.072 67.9911 133.072C69.0178 133.072 69.8624 133.426 70.5251 134.136C71.1971 134.845 71.5331 135.722 71.5331 136.768C71.5331 137.001 71.5098 137.248 71.4631 137.51H66.1851ZM66.1571 136.11H69.7271C69.6244 135.634 69.4098 135.279 69.0831 135.046C68.7658 134.812 68.4018 134.696 67.9911 134.696C67.5058 134.696 67.1044 134.822 66.7871 135.074C66.4698 135.316 66.2598 135.662 66.1571 136.11ZM74.5999 134.472C74.7679 134.024 75.0432 133.688 75.4259 133.464C75.8179 133.24 76.2519 133.128 76.7279 133.128V135.144C76.1772 135.078 75.6825 135.19 75.2439 135.48C74.8145 135.769 74.5999 136.25 74.5999 136.922V140.268H72.7939V133.268H74.5999V134.472ZM83.3001 138.42H87.4301V140.268H81.3681V130.468H87.3601V132.316H83.3001V134.402H87.0101V136.222H83.3001V138.42ZM96.3519 131.868C95.3626 131.793 94.8679 132.19 94.8679 133.058V133.268H96.3519V135.004H94.8679V140.268H93.0619V135.004H90.9899V140.268H89.1839V135.004H88.1759V133.268H89.1839V133.198C89.1839 132.208 89.4593 131.457 90.0099 130.944C90.5606 130.43 91.3819 130.206 92.4739 130.272V132.008C91.4846 131.933 90.9899 132.33 90.9899 133.198V133.268H93.0619V133.058C93.0619 132.068 93.3373 131.317 93.8879 130.804C94.4479 130.29 95.2693 130.066 96.3519 130.132V131.868ZM98.4507 137.51C98.6934 138.387 99.3514 138.826 100.425 138.826C101.115 138.826 101.638 138.592 101.993 138.126L103.449 138.966C102.758 139.964 101.741 140.464 100.397 140.464C99.2394 140.464 98.3107 140.114 97.6107 139.414C96.9107 138.714 96.5607 137.832 96.5607 136.768C96.5607 135.713 96.9061 134.836 97.5967 134.136C98.2874 133.426 99.1741 133.072 100.257 133.072C101.283 133.072 102.128 133.426 102.791 134.136C103.463 134.845 103.799 135.722 103.799 136.768C103.799 137.001 103.775 137.248 103.729 137.51H98.4507ZM98.4227 136.11H101.993C101.89 135.634 101.675 135.279 101.349 135.046C101.031 134.812 100.667 134.696 100.257 134.696C99.7714 134.696 99.3701 134.822 99.0527 135.074C98.7354 135.316 98.5254 135.662 98.4227 136.11ZM108.337 140.464C107.282 140.464 106.4 140.109 105.691 139.4C104.991 138.69 104.641 137.813 104.641 136.768C104.641 135.722 104.991 134.845 105.691 134.136C106.4 133.426 107.282 133.072 108.337 133.072C109.018 133.072 109.639 133.235 110.199 133.562C110.759 133.888 111.183 134.327 111.473 134.878L109.919 135.788C109.779 135.498 109.564 135.27 109.275 135.102C108.995 134.934 108.677 134.85 108.323 134.85C107.781 134.85 107.333 135.032 106.979 135.396C106.624 135.75 106.447 136.208 106.447 136.768C106.447 137.318 106.624 137.776 106.979 138.14C107.333 138.494 107.781 138.672 108.323 138.672C108.687 138.672 109.009 138.592 109.289 138.434C109.578 138.266 109.793 138.037 109.933 137.748L111.501 138.644C111.193 139.194 110.759 139.638 110.199 139.974C109.639 140.3 109.018 140.464 108.337 140.464ZM116.46 135.004H114.878V137.916C114.878 138.158 114.939 138.336 115.06 138.448C115.181 138.56 115.359 138.625 115.592 138.644C115.825 138.653 116.115 138.648 116.46 138.63V140.268C115.219 140.408 114.341 140.291 113.828 139.918C113.324 139.544 113.072 138.877 113.072 137.916V135.004H111.854V133.268H113.072V131.854L114.878 131.308V133.268H116.46V135.004ZM119.249 135.256C119.249 135.442 119.37 135.596 119.613 135.718C119.865 135.83 120.168 135.932 120.523 136.026C120.878 136.11 121.232 136.222 121.587 136.362C121.942 136.492 122.24 136.716 122.483 137.034C122.735 137.351 122.861 137.748 122.861 138.224C122.861 138.942 122.59 139.498 122.049 139.89C121.517 140.272 120.85 140.464 120.047 140.464C118.61 140.464 117.63 139.908 117.107 138.798L118.675 137.916C118.88 138.522 119.338 138.826 120.047 138.826C120.691 138.826 121.013 138.625 121.013 138.224C121.013 138.037 120.887 137.888 120.635 137.776C120.392 137.654 120.094 137.547 119.739 137.454C119.384 137.36 119.03 137.244 118.675 137.104C118.32 136.964 118.017 136.744 117.765 136.446C117.522 136.138 117.401 135.755 117.401 135.298C117.401 134.607 117.653 134.066 118.157 133.674C118.67 133.272 119.305 133.072 120.061 133.072C120.63 133.072 121.148 133.202 121.615 133.464C122.082 133.716 122.45 134.08 122.721 134.556L121.181 135.396C120.957 134.92 120.584 134.682 120.061 134.682C119.828 134.682 119.632 134.733 119.473 134.836C119.324 134.938 119.249 135.078 119.249 135.256Z" fill="#828282"/>
<path d="M43.0703 4.45312H124.831V85.458H43.0703V4.45312Z" fill="url(#paint0_radial)"/>
<path d="M43.0703 4.45367H124.831V85.4586H43.0703V4.45367ZM39.3547 89.2423H128.564V0.669922H39.3547V89.2423ZM102.466 43.3644C104.359 43.3644 105.038 43.3644 105.217 43.2916C105.217 43.0188 105.288 42.8369 105.288 42.6549C105.288 40.6175 104.324 36.8338 100.465 36.8338C96.8926 36.8338 95.3742 40.0172 94.9991 43.3826H102.466V43.3644ZM94.9276 48.5489C94.9991 53.6606 97.3749 57.0987 103.038 57.0987C105.235 57.0987 107.128 56.7894 109.093 55.9344C109.361 55.8253 109.54 55.8617 109.54 56.2073V60.937C109.54 61.319 109.433 61.5009 109.165 61.701C107.2 62.6833 104.735 63.1381 101.698 63.1381C91.8908 63.1381 88.211 55.7525 88.211 47.5483C88.211 38.6165 92.7483 31.3037 100.733 31.3037C108.843 31.3037 111.666 38.2345 111.666 43.8737C111.666 45.6929 111.558 47.1663 111.362 47.894C111.29 48.2032 111.183 48.3124 110.88 48.3851C110.129 48.4943 107.95 48.658 104.681 48.658H94.9455V48.5489H94.9276ZM74.9921 44.6923C73.956 40.4902 71.4194 31.3401 70.4905 26.9015H70.4191C69.6331 31.3219 67.5967 38.8166 66.0783 44.6923H74.9921ZM64.5599 50.8227L61.6303 62.1376C61.5589 62.4468 61.4517 62.556 61.0766 62.556H55.5925C55.2174 62.556 55.1459 62.4468 55.2174 61.9921L65.7746 24.4093C65.9533 23.7362 66.0783 23.1905 66.1498 21.2986C66.1498 21.0257 66.2569 20.9166 66.4534 20.9166H74.2597C74.5277 20.9166 74.6348 20.9894 74.7063 21.2986L86.514 62.0648C86.5854 62.3741 86.514 62.556 86.2103 62.556H80.0832C79.7795 62.556 79.6008 62.4468 79.5294 62.174L76.4748 50.8227H64.5599Z" fill="#D8A1FF"/>
<path d="M12.2142 183.86C12.514 182.939 13.816 182.939 14.1158 183.86L15.8669 189.234C16.001 189.646 16.3848 189.924 16.8177 189.924H22.4785C23.4478 189.924 23.8502 191.165 23.0652 191.734L18.4903 195.049C18.1388 195.303 17.9918 195.756 18.1262 196.168L19.8748 201.535C20.1748 202.456 19.1215 203.223 18.3373 202.654L13.7517 199.332C13.4017 199.078 12.9283 199.078 12.5783 199.332L7.99273 202.654C7.20847 203.223 6.15518 202.456 6.4552 201.535L8.20377 196.168C8.33823 195.756 8.19115 195.303 7.83969 195.049L3.26482 191.734C2.47981 191.165 2.88214 189.924 3.85153 189.924H9.51229C9.94522 189.924 10.329 189.646 10.4631 189.234L12.2142 183.86Z" fill="#070707"/>
<path d="M47.3116 183.86C47.6114 182.939 48.9134 182.939 49.2132 183.86L50.9643 189.234C51.0984 189.646 51.4822 189.924 51.9151 189.924H57.5759C58.5453 189.924 58.9476 191.165 58.1626 191.734L53.5877 195.049C53.2362 195.303 53.0892 195.756 53.2236 196.168L54.9722 201.535C55.2722 202.456 54.2189 203.223 53.4347 202.654L48.8491 199.332C48.4991 199.078 48.0257 199.078 47.6757 199.332L43.0901 202.654C42.3059 203.223 41.2526 202.456 41.5526 201.535L43.3012 196.168C43.4356 195.756 43.2886 195.303 42.9371 195.049L38.3622 191.734C37.5772 191.165 37.9796 189.924 38.9489 189.924H44.6097C45.0426 189.924 45.4264 189.646 45.5605 189.234L47.3116 183.86Z" fill="#070707"/>
<path d="M82.4088 183.86C82.7086 182.939 84.0105 182.939 84.3104 183.86L86.0615 189.234C86.1956 189.646 86.5793 189.924 87.0123 189.924H92.673C93.6424 189.924 94.0448 191.165 93.2598 191.734L88.6849 195.049C88.3334 195.303 88.1863 195.756 88.3208 196.168L90.0694 201.535C90.3694 202.456 89.3161 203.223 88.5318 202.654L83.9463 199.332C83.5963 199.078 83.1229 199.078 82.7729 199.332L78.1873 202.654C77.403 203.223 76.3498 202.456 76.6498 201.535L78.3984 196.168C78.5328 195.756 78.3857 195.303 78.0343 195.049L73.4594 191.734C72.6744 191.165 73.0767 189.924 74.0461 189.924H79.7069C80.1398 189.924 80.5236 189.646 80.6577 189.234L82.4088 183.86Z" fill="#070707"/>
<path d="M117.506 183.86C117.806 182.939 119.108 182.939 119.408 183.86L121.159 189.234C121.293 189.646 121.677 189.924 122.109 189.924H127.77C128.74 189.924 129.142 191.165 128.357 191.734L123.782 195.049C123.431 195.303 123.284 195.756 123.418 196.168L125.167 201.535C125.467 202.456 124.413 203.223 123.629 202.654L119.043 199.332C118.693 199.078 118.22 199.078 117.87 199.332L113.284 202.654C112.5 203.223 111.447 202.456 111.747 201.535L113.496 196.168C113.63 195.756 113.483 195.303 113.131 195.049L108.557 191.734C107.772 191.165 108.174 189.924 109.143 189.924H114.804C115.237 189.924 115.621 189.646 115.755 189.234L117.506 183.86Z" fill="#070707"/>
<path d="M152.603 183.86C152.903 182.939 154.205 182.939 154.504 183.86L156.256 189.234C156.39 189.646 156.773 189.924 157.206 189.924H162.867C163.837 189.924 164.239 191.165 163.454 191.734L158.879 195.049C158.528 195.303 158.38 195.756 158.515 196.168L160.263 201.535C160.563 202.456 159.51 203.223 158.726 202.654L154.14 199.332C153.79 199.078 153.317 199.078 152.967 199.332L148.381 202.654C147.597 203.223 146.544 202.456 146.844 201.535L148.592 196.168C148.727 195.756 148.58 195.303 148.228 195.049L143.653 191.734C142.868 191.165 143.271 189.924 144.24 189.924H149.901C150.334 189.924 150.718 189.646 150.852 189.234L152.603 183.86Z" fill="#E5E5E5"/>
<defs>
<radialGradient id="paint0_radial" cx="0" cy="0" r="1" gradientUnits="userSpaceOnUse" gradientTransform="translate(70.0228 22.6143) scale(62.1407 61.2673)">
<stop stop-color="#442F55" stop-opacity="0.98"/>
<stop offset="1" stop-color="#12002C"/>
</radialGradient>
</defs>
</svg>
